<svg width="254" height="36" viewBox="0 0 254 36" fill="none" xmlns="http://www.w3.org/2000/svg">
<path d="M18.9023 35.812H0V23.9386H18.9023C26.5807 23.9386 31.2937 20.4048 33.1766 13.1053C33.9924 9.94263 33.8184 3.80297 33.8184 1.64559V0.187988H45.7575V1.64559C45.7575 5.16777 45.8812 11.2572 44.5744 16.206C41.2726 28.7096 31.9665 35.812 18.9023 35.812Z" fill="#006D72"/>
<path d="M2.65228 35.812H0V23.9386H2.65228C10.3307 23.9386 15.0437 20.4048 16.9266 13.1053C17.7424 9.94263 17.5684 3.80297 17.5684 1.64559V0.187988H29.5075V1.64559C29.5075 5.16777 29.6312 11.2572 28.3244 16.206C25.0226 28.7096 15.7165 35.812 2.65228 35.812Z" fill="#9BCA3B"/>
<path d="M65.9531 18.0375C65.9531 11.0588 71.045 6.12158 78.0237 6.12158C85.0023 6.12158 90.1097 11.0782 90.1097 18.0375C90.1097 24.9968 85.0333 29.8529 78.0237 29.8529C71.0141 29.8529 65.9531 24.9968 65.9531 18.0375ZM78.0391 25.5922C82.35 25.5922 85.4044 22.5378 85.4044 18.022C85.4044 13.5062 82.35 10.4016 78.0391 10.4016C73.7282 10.4016 70.6739 13.541 70.6739 18.022C70.6739 22.503 73.7785 25.5922 78.0391 25.5922Z" fill="white"/>
<path d="M93.6797 6.46265H104.289C108.43 6.46265 111.418 9.026 111.418 12.7608C111.418 14.3073 110.568 16.6812 108.329 17.5318C110.892 18.4984 112.199 20.6906 112.199 23.1186C112.199 26.8882 109.296 29.5173 105.035 29.5173H93.6797V6.46652V6.46265ZM98.2613 10.4024V16.0394H103.678C105.561 16.0394 106.682 14.8525 106.682 13.2712C106.682 11.454 105.325 10.4024 103.508 10.4024H98.2613ZM98.2613 19.6505V25.593H104.289C106.121 25.593 107.328 24.4216 107.328 22.759C107.328 20.8568 106.141 19.6544 104.289 19.6544H98.2613V19.6505Z" fill="white"/>
<path d="M120.378 6.46265H115.797V29.5173H120.378V6.46265Z" fill="white"/>
<path d="M125.438 29.5135V6.46265H129.594L142.345 22.2835V6.46265H146.926V29.5135H142.7L130.019 13.8627V29.5135H125.438Z" fill="white"/>
<path d="M58.0206 6.48507V20.9643C58.0206 23.953 56.6984 25.6309 54.4714 25.6309C53.4778 25.6309 52.6388 25.5923 51.7031 25.1592V29.4895C52.546 29.7447 53.4468 29.8761 54.4018 29.8761C59.544 29.8761 62.6022 26.6323 62.6022 21.2002V6.4812H58.0206V6.48507Z" fill="white"/>
<path d="M194.652 6.46265H190.07V29.5173H194.652V6.46265Z" fill="white"/>
<path d="M201.664 21.9618C202.751 24.1849 204.823 25.7121 207.587 25.7121C209.795 25.7121 211.543 24.6411 211.543 23.1487C211.543 21.6563 209.826 20.8057 207.077 19.9397C202.646 18.5478 199.031 17.1908 199.031 12.7407C199.031 8.29057 203.292 6.12158 207.197 6.12158C211.372 6.12158 214.257 8.56508 215.718 11.1284L212.188 13.6415C211.187 11.9597 209.524 10.2624 207.077 10.2624C205.295 10.2624 203.717 11.2135 203.717 12.7252C203.717 14.5771 205.399 14.8478 208.283 15.8646C212.614 17.3918 216.209 18.5633 216.209 23.1139C216.209 27.6645 211.643 29.8529 207.533 29.8529C203.087 29.8529 199.658 27.5254 198.281 24.4053L201.66 21.9618H201.664Z" fill="white"/>
<path d="M219.789 6.46265H224.645L232.08 21.8079L239.496 6.46265H244.352V29.5135H239.77V15.3744L233.557 27.9708H230.584L224.371 15.3744V29.5135H219.789V6.46265Z" fill="white"/>
<path d="M253.996 6.46265H249.414V29.5173H253.996V6.46265Z" fill="white"/>
<path d="M180.646 6.48507V20.9643C180.646 23.953 179.323 25.6309 177.096 25.6309C176.103 25.6309 175.264 25.5923 174.328 25.1592V29.4895C175.171 29.7447 176.072 29.8761 177.027 29.8761C182.169 29.8761 185.227 26.6323 185.227 21.2002V6.4812H180.646V6.48507Z" fill="white"/>
<path d="M166.433 20.9543C166.851 20.502 167.21 20.0264 167.504 19.5276C167.527 19.489 167.547 19.4503 167.566 19.4117L165.772 17.5906C165.347 18.3214 165.01 18.7389 164.62 19.114L159.613 14.0298C159.257 13.6548 159.033 13.3996 158.774 13.0555C158.38 12.5297 158.07 11.8879 158.051 11.2229C158.009 9.88899 159.021 8.98428 160.433 8.94175C161.817 8.89535 162.926 9.71887 163.448 11.1107L165.869 9.62221C164.863 7.31017 162.729 6.0459 160.317 6.12322C158.805 6.17348 157.537 6.6645 156.535 7.63107C155.534 8.59378 155.07 9.79233 155.117 11.277C155.151 12.3247 155.592 13.3184 156.257 14.1264C157.104 15.1587 162.594 20.8074 162.594 20.8074C161.72 21.3835 160.742 21.6773 159.656 21.6773C158.631 21.6773 157.815 21.3951 157.2 20.8344C156.59 20.2738 156.28 19.5818 156.28 18.7582C156.28 18.0701 156.485 17.4476 156.899 16.8947C156.922 16.8638 156.949 16.829 156.976 16.798L155.031 14.8533C154.68 15.1587 154.374 15.4951 154.119 15.8624C153.481 16.7864 153.164 17.8187 153.164 18.9593C153.164 20.0341 153.427 20.9736 153.957 21.7778C154.486 22.582 155.229 23.2083 156.184 23.653C157.139 24.0976 158.264 24.3218 159.559 24.3218C160.719 24.3218 161.778 24.144 162.745 23.7922C163.375 23.5602 163.982 23.2316 164.566 22.814L165.961 24.2368C165.961 24.2368 166.097 24.3721 166.101 24.3682L168.258 22.8024L166.429 20.9466L166.433 20.9543Z" fill="white"/>
<path d="M167.477 26.8726H153.961V29.5171H167.477V26.8726Z" fill="white"/>
</svg>
