<svg width="255" height="37" viewBox="0 0 255 37" fill="none" xmlns="http://www.w3.org/2000/svg">
<path d="M19.6484 36.2231H0.746094V24.3497H19.6484C27.3268 24.3497 32.0398 20.8159 33.9227 13.5164C34.7385 10.3538 34.5645 4.21411 34.5645 2.05672V0.599121H46.5036V2.05672C46.5036 5.57891 46.6273 11.6683 45.3205 16.6171C42.0187 29.1207 32.7126 36.2231 19.6484 36.2231Z" fill="#006D72"/>
<path d="M3.39837 36.2231H0.746094V24.3497H3.39837C11.0768 24.3497 15.7898 20.8159 17.6727 13.5164C18.4885 10.3538 18.3145 4.21411 18.3145 2.05672V0.599121H30.2536V2.05672C30.2536 5.57891 30.3773 11.6683 29.0705 16.6171C25.7687 29.1207 16.4626 36.2231 3.39837 36.2231Z" fill="#9BCA3B"/>
<path d="M66.6992 18.4486C66.6992 11.47 71.7911 6.53271 78.7698 6.53271C85.7484 6.53271 90.8558 11.4893 90.8558 18.4486C90.8558 25.4079 85.7794 30.264 78.7698 30.264C71.7602 30.264 66.6992 25.4079 66.6992 18.4486ZM78.7852 26.0033C83.0961 26.0033 86.1505 22.949 86.1505 18.4331C86.1505 13.9173 83.0961 10.8127 78.7852 10.8127C74.4743 10.8127 71.42 13.9521 71.42 18.4331C71.42 22.9142 74.5246 26.0033 78.7852 26.0033Z" fill="#003041"/>
<path d="M94.4219 6.87378H105.031C109.172 6.87378 112.16 9.43713 112.16 13.172C112.16 14.7185 111.31 17.0924 109.071 17.943C111.635 18.9095 112.941 21.1017 112.941 23.5297C112.941 27.2994 110.038 29.9285 105.777 29.9285H94.4219V6.87765V6.87378ZM99.0034 10.8135V16.4506H104.42C106.303 16.4506 107.424 15.2636 107.424 13.6823C107.424 11.8652 106.067 10.8135 104.25 10.8135H99.0034ZM99.0034 20.0617V26.0042H105.031C106.864 26.0042 108.07 24.8327 108.07 23.1702C108.07 21.268 106.883 20.0656 105.031 20.0656H99.0034V20.0617Z" fill="#003041"/>
<path d="M121.128 6.87378H116.547V29.9285H121.128V6.87378Z" fill="#003041"/>
<path d="M126.188 29.9246V6.87378H130.344L143.095 22.6946V6.87378H147.676V29.9246H143.45L130.769 14.2738V29.9246H126.188Z" fill="#003041"/>
<path d="M58.7667 6.8962V21.3755C58.7667 24.3641 57.4445 26.0421 55.2175 26.0421C54.2238 26.0421 53.3849 26.0034 52.4492 25.5704V29.9006C53.2921 30.1558 54.1929 30.2872 55.1479 30.2872C60.2901 30.2872 63.3483 27.0434 63.3483 21.6113V6.89233H58.7667V6.8962Z" fill="#003041"/>
<path d="M195.394 6.87378H190.812V29.9285H195.394V6.87378Z" fill="#003041"/>
<path d="M202.406 22.3729C203.493 24.596 205.565 26.1232 208.33 26.1232C210.537 26.1232 212.285 25.0522 212.285 23.5599C212.285 22.0675 210.568 21.2169 207.819 20.3508C203.388 18.959 199.773 17.6019 199.773 13.1518C199.773 8.7017 204.034 6.53271 207.939 6.53271C212.115 6.53271 214.999 8.97621 216.46 11.5396L212.93 14.0526C211.929 12.3708 210.267 10.6735 207.819 10.6735C206.037 10.6735 204.459 11.6246 204.459 13.1363C204.459 14.9883 206.141 15.2589 209.026 16.2758C213.356 17.8029 216.951 18.9744 216.951 23.5251C216.951 28.0757 212.385 30.264 208.275 30.264C203.829 30.264 200.4 27.9365 199.023 24.8164L202.403 22.3729H202.406Z" fill="#003041"/>
<path d="M220.531 6.87378H225.387L232.822 22.2191L240.238 6.87378H245.094V29.9246H240.512V15.7856L234.299 28.3819H231.326L225.113 15.7856V29.9246H220.531V6.87378Z" fill="#003041"/>
<path d="M254.738 6.87378H250.156V29.9285H254.738V6.87378Z" fill="#003041"/>
<path d="M181.388 6.8962V21.3755C181.388 24.3641 180.066 26.0421 177.839 26.0421C176.845 26.0421 176.006 26.0034 175.07 25.5704V29.9006C175.913 30.1558 176.814 30.2872 177.769 30.2872C182.911 30.2872 185.969 27.0434 185.969 21.6113V6.89233H181.388V6.8962Z" fill="#003041"/>
<path d="M167.179 21.3654C167.597 20.9131 167.956 20.4375 168.25 19.9388C168.273 19.9001 168.293 19.8614 168.312 19.8228L166.518 18.0018C166.093 18.7325 165.756 19.1501 165.366 19.5251L160.359 14.4409C160.003 14.0659 159.779 13.8107 159.52 13.4666C159.126 12.9408 158.816 12.299 158.797 11.634C158.755 10.3001 159.768 9.39541 161.179 9.35288C162.563 9.30649 163.673 10.13 164.194 11.5219L166.615 10.0333C165.61 7.7213 163.475 6.45703 161.063 6.53436C159.551 6.58462 158.283 7.07563 157.282 8.04221C156.28 9.00491 155.816 10.2035 155.863 11.6881C155.897 12.7359 156.338 13.7295 157.003 14.5376C157.85 15.5699 163.34 21.2185 163.34 21.2185C162.466 21.7946 161.488 22.0884 160.402 22.0884C159.377 22.0884 158.561 21.8062 157.947 21.2456C157.336 20.685 157.026 19.9929 157.026 19.1694C157.026 18.4812 157.231 17.8587 157.645 17.3058C157.668 17.2749 157.695 17.2401 157.722 17.2092L155.778 15.2644C155.426 15.5699 155.12 15.9062 154.865 16.2735C154.227 17.1976 153.91 18.2299 153.91 19.3704C153.91 20.4453 154.173 21.3848 154.703 22.189C155.232 22.9931 155.975 23.6195 156.93 24.0641C157.885 24.5087 159.01 24.733 160.305 24.733C161.465 24.733 162.524 24.5551 163.491 24.2033C164.121 23.9713 164.728 23.6427 165.312 23.2251L166.708 24.6479C166.708 24.6479 166.843 24.7832 166.847 24.7794L169.004 23.2135L167.175 21.3577L167.179 21.3654Z" fill="#003041"/>
<path d="M168.224 27.2837H154.707V29.9282H168.224V27.2837Z" fill="#003041"/>
</svg>
