<svg width="88" height="30" viewBox="0 0 88 30" fill="none" xmlns="http://www.w3.org/2000/svg">
<path d="M26.2064 6.62249C21.4441 6.62249 18.0203 10.1167 18.0203 15.1044C18.0203 19.7117 21.2891 23.5863 26.6432 23.5863C30.6587 23.5863 33.1103 21.2757 33.1103 21.2757L31.6168 18.3028C31.6168 18.3028 29.5315 20.0921 27.0095 20.0921C24.6284 20.0921 22.4727 18.5986 22.1768 15.8512H33.2512C33.2512 15.8512 33.3216 14.8085 33.3216 14.2872C33.3498 9.96172 30.8137 6.62249 26.2064 6.62249ZM22.2613 13.0192C22.6276 10.9339 24.0507 9.66584 26.1219 9.66584C27.9112 9.66584 29.2497 10.8494 29.3202 13.0192H22.2613ZM10.5951 19.8526C7.32636 19.8526 5.2411 17.401 5.2411 14.4986C5.2411 11.5961 7.25591 9.21497 10.4402 9.21497C13.1172 9.21497 14.9066 11.0748 14.9066 11.0748L16.7664 8.17234C16.7664 8.17234 14.6811 5.65031 10.2288 5.65031C4.57889 5.65031 0.929688 9.73629 0.929688 14.6536C0.929688 19.6413 4.57889 23.5723 10.2288 23.5723C14.8361 23.5723 17.2877 20.8248 17.2877 20.8248L15.6533 17.7814C15.5688 17.6969 13.4131 19.8526 10.5951 19.8526ZM48.8202 0.662598H44.8751V4.22726H48.8202V0.662598ZM39.9719 17.4715V0.662598H36.0268V18.0632C36.0268 22.6705 38.7743 23.2623 41.0145 23.2623C41.6908 23.2623 42.2826 23.1918 42.2826 23.1918V19.6272C42.2826 19.6272 41.9867 19.6272 41.6908 19.6272C40.6341 19.7117 39.9719 19.2608 39.9719 17.4715ZM79.7468 6.76338L80.3386 7.73557L80.7894 8.48232L80.3386 9.22906L79.6623 10.2717C81.8884 10.793 83.6073 12.7937 83.6073 15.2594C83.6073 15.7103 83.5369 16.147 83.4524 16.5275L83.9737 17.4996L84.495 18.4718H85.6785H86.4253C86.7916 17.4996 87.1016 16.3866 87.1016 15.2735C86.8902 10.8494 83.7623 7.35515 79.7468 6.76338ZM82.6493 17.9928C81.7616 19.3313 80.1977 20.2189 78.4787 20.2189C76.7739 20.2189 75.21 19.3313 74.3082 17.9928L72.378 17.8378L71.4058 19.5426L71.3353 19.6976C72.8288 22.0788 75.5058 23.6427 78.4787 23.6427C81.4516 23.6427 84.0582 22.0788 85.6222 19.6976L83.5369 19.7681L82.6493 17.9928ZM72.392 16.5838L73.5756 16.6543C73.4206 16.2034 73.3501 15.6821 73.3501 15.1608C73.3501 12.4838 75.4354 10.3281 78.042 10.1026L79.155 8.46823L78.1829 6.83383L78.1124 6.76338C73.646 6.98882 70.0109 10.7085 70.0109 15.2453C70.0109 16.3584 70.2363 17.401 70.6027 18.3732L71.124 17.401L71.5749 16.6543L72.392 16.5838ZM63.5438 8.17234C63.5438 8.39778 63.5438 8.62321 63.5438 8.62321H63.4733C63.4733 8.62321 62.2053 6.53795 58.7111 6.53795C54.1038 6.53795 51.5676 10.1872 51.5676 14.569C51.5676 19.0354 54.1742 22.7551 58.7815 22.7551C60.9372 22.7551 62.2757 22.0083 63.2479 20.5994H63.3184C63.3184 20.5994 63.2479 21.0502 63.2479 21.487V22.4592C63.2479 25.3616 61.1626 26.4043 58.7111 26.4043C56.2595 26.4043 54.2447 25.3616 54.2447 25.3616L53.0611 28.405C54.6251 29.2222 56.7808 29.8139 58.7815 29.8139C62.952 29.8139 67.2634 27.7287 67.2634 22.1492V6.98882H63.5438V8.17234ZM59.6692 19.4017C57.0626 19.4017 55.6536 17.3165 55.6536 14.4986C55.6536 11.7511 56.9921 10.0322 59.4437 10.0322C61.5994 10.0322 63.3888 11.0043 63.3888 14.724C63.3888 18.2887 61.6135 19.4017 59.6692 19.4017ZM44.8751 23.1214H48.8906V6.98882H44.8751V23.1214Z" fill="white"/>
</svg>
