<svg width="101" height="22" viewBox="0 0 101 22" fill="none" xmlns="http://www.w3.org/2000/svg">
<path d="M8.07637 21.9128C3.55677 21.9128 0.617188 18.7772 0.617188 14.3066C0.617188 9.836 3.55677 6.70044 8.07637 6.70044C11.4814 6.70044 13.8698 8.59892 14.6169 10.6811C14.8129 11.2568 14.5557 11.5507 14.1883 11.7223L12.8287 12.3224C12.253 12.5796 11.8244 12.3836 11.5916 12.0039C11.0405 11.171 10.1463 10.0197 8.07637 10.0197C5.60222 10.0197 4.07119 11.5753 4.07119 14.3188C4.07119 17.0625 5.60222 18.618 8.07637 18.618C10.1463 18.618 11.0405 17.4667 11.5916 16.6338C11.8244 16.2541 12.253 16.0581 12.8287 16.3153L14.1883 16.9155C14.5679 17.0869 14.8497 17.3809 14.6169 17.9566C13.8086 19.9898 11.4814 21.9128 8.07637 21.9128Z" fill="white"/>
<path d="M17.5337 21.5937C17.0192 21.5937 16.6641 21.2507 16.6641 20.7241V1.4331C16.6641 0.918675 17.007 0.563477 17.5337 0.563477H19.2607C19.7751 0.563477 20.1303 0.906428 20.1303 1.4331V20.7363C20.1303 21.2507 19.7873 21.606 19.2607 21.606H17.5337V21.5937Z" fill="white"/>
<path d="M29.8029 21.8882C25.1609 21.8882 22.3438 19.2917 22.3438 14.2821C22.3438 9.89726 25.2588 6.70044 29.6315 6.70044C33.8939 6.70044 36.2333 9.87273 36.2333 13.7065C36.2333 14.6618 35.7679 15.2865 34.6778 15.2865H25.5773C25.7488 17.8463 27.3043 18.8629 29.9009 18.8629C31.5667 18.8629 32.7303 18.4588 33.5265 18.1158C34.1634 17.8586 34.592 17.8218 34.9105 18.4588L35.3147 19.2917C35.6087 19.8918 35.5474 20.3328 35.0575 20.6512C34.3838 21.0799 32.4486 21.8882 29.8029 21.8882ZM25.5896 13.045H32.9998C32.8038 10.6566 31.4197 9.72575 29.5457 9.72575C27.4636 9.72575 25.8591 10.6444 25.5896 13.045Z" fill="white"/>
<path d="M47.1413 19.8428C46.0757 20.9696 44.2017 21.8883 42.1808 21.8883C39.131 21.8883 37.3672 20.1613 37.3672 17.4789C37.3672 14.8333 39.4739 12.9593 43.3933 12.9593C44.7529 12.9593 45.9042 13.2165 46.8473 13.535V12.2612C46.8473 10.7301 45.892 9.78699 43.9323 9.78699C42.487 9.78699 41.4214 10.1912 40.5272 10.5709C40.0618 10.7669 39.6087 10.7179 39.3759 10.2524L38.8615 9.21133C38.5675 8.66015 38.6288 8.17023 39.2657 7.82728C40.4415 7.19037 42.2053 6.70044 44.165 6.70044C47.619 6.70044 50.1911 8.3417 50.1911 12.1509V20.7369C50.1911 21.2514 49.8482 21.6066 49.3215 21.6066H47.9987C47.4843 21.6066 47.1291 21.2636 47.1291 20.7369V19.8428H47.1413ZM43.0259 19.0344C44.4712 19.0344 45.794 18.5199 46.7984 17.7361V15.8621C45.9287 15.6906 45.0101 15.5682 43.8833 15.5682C41.9481 15.5682 40.8334 16.2051 40.8334 17.4422C40.8334 18.4343 41.6051 19.0344 43.0259 19.0344Z" fill="white"/>
<path d="M55.6825 21.5934H53.9555C53.4411 21.5934 53.0859 21.2504 53.0859 20.7237V7.85083C53.0859 7.3364 53.4289 6.9812 53.9555 6.9812H55.5355C56.05 6.9812 56.4052 7.32415 56.4052 7.85083V9.43085C57.2135 8.27952 58.6221 6.9812 60.8145 6.9812C61.3902 6.9812 61.6842 7.32415 61.6842 7.85083V9.49209C61.6842 9.98201 61.3413 10.3005 60.8145 10.3005H60.3491C58.4506 10.3005 57.4341 10.7291 56.54 11.513V20.736C56.54 21.2504 56.197 21.5934 55.6825 21.5934Z" fill="white"/>
<path d="M70.1703 21.5936H69.1904C64.781 21.5936 63.25 19.5236 63.25 16.5228V3.44165C63.25 2.92722 63.593 2.57202 64.1197 2.57202H65.8466C66.3611 2.57202 66.7162 2.91497 66.7162 3.44165V6.98139H70.1703C70.6846 6.98139 71.0399 7.32434 71.0399 7.85101V9.14932C71.0399 9.66375 70.697 10.019 70.1703 10.019H66.7162V16.9392C66.7162 18.0293 67.4634 18.5805 68.7862 18.5805H70.1703C70.6846 18.5805 71.0399 18.9235 71.0399 19.4501V20.7484C71.0399 21.2506 70.6846 21.5936 70.1703 21.5936Z" fill="white"/>
<path d="M82.1021 19.8428C81.0366 20.9697 79.1626 21.8882 77.1416 21.8882C74.0918 21.8882 72.3281 20.1612 72.3281 17.4789C72.3281 14.8332 74.4348 12.9593 78.3542 12.9593C79.7138 12.9593 80.8651 13.2165 81.8082 13.5349V12.2611C81.8082 10.7301 80.8529 9.78699 78.8931 9.78699C77.4478 9.78699 76.3822 10.1912 75.4881 10.5709C75.0227 10.7668 74.5695 10.7178 74.3368 10.2524L73.8224 9.21132C73.5284 8.66015 73.5896 8.17023 74.2266 7.82727C75.4024 7.19037 77.1661 6.70044 79.1258 6.70044C82.5799 6.70044 85.152 8.34169 85.152 12.1509V20.7369C85.152 21.2513 84.809 21.6065 84.2823 21.6065H82.9596C82.4451 21.6065 82.0899 21.2636 82.0899 20.7369V19.8428H82.1021ZM77.9868 19.0344C79.432 19.0344 80.7549 18.52 81.7592 17.7361V15.8621C80.8896 15.6907 79.971 15.5681 78.8441 15.5681C76.9089 15.5681 75.7944 16.205 75.7944 17.4421C75.7944 18.4342 76.5659 19.0344 77.9868 19.0344Z" fill="white"/>
<path d="M89.2487 21.5934H87.2891C86.7746 21.5934 86.6276 21.1034 86.8604 20.7605L91.2943 14.2444L86.8604 7.81409C86.6032 7.43439 86.7746 6.9812 87.2891 6.9812H89.3345C90.0816 6.9812 90.4614 7.12818 90.7798 7.64261L93.5724 11.9662L96.3401 7.64261C96.6593 7.15268 97.0261 6.9812 97.7857 6.9812H99.7454C100.26 6.9812 100.407 7.47113 100.174 7.81409L95.7401 14.3424L100.174 20.7727C100.431 21.1524 100.26 21.6056 99.7454 21.6056H97.6998C96.9533 21.6056 96.5734 21.4341 96.2543 20.9442L93.4621 16.6083L90.7185 20.883C90.3756 21.3974 90.0082 21.5934 89.2487 21.5934Z" fill="white"/>
</svg>
