<svg width="133" height="32" viewBox="0 0 133 32" fill="none" xmlns="http://www.w3.org/2000/svg">
<g clip-path="url(#clip0_12862_25491)">
<path d="M18.8072 22.3932C18.5086 22.1095 18.1114 21.9482 17.7022 21.9602C15.4804 22.0229 12.921 19.801 11.6906 18.6901C11.4846 18.5049 11.168 18.7259 11.2696 18.9857C11.6996 20.0997 12.7687 22.0259 15.3788 23.752C16.6003 24.5583 18.1801 24.9346 19.8942 25.1586C20.3959 25.2243 20.8947 25.2721 21.3785 25.3019C21.6502 25.3169 21.7846 24.9645 21.5666 24.7943C20.6319 24.0566 19.7091 23.2563 18.8102 22.4022V22.3932H18.8072Z" fill="#E2C06B"/>
<path d="M51.5491 14.9334C51.7074 15.3515 52.3285 15.2768 52.3793 14.8318C52.7138 12.1441 51.3132 9.01734 49.599 7.04036C47.8818 5.06338 45.3524 3.6986 42.6676 3.70756C39.8724 3.71951 37.4176 5.15894 35.4884 7.0971C34.5058 8.08559 33.6756 9.20549 32.8633 10.3343C31.3701 12.4218 30.7818 12.7682 31.7136 13.8403L32.5527 14.8169C33.0216 15.3634 33.4815 15.6411 34.0668 15.2201C35.4167 14.2555 37.1458 13.1505 38.5703 12.3053C40.1561 11.3676 41.8911 10.4717 43.7636 10.3164C45.5913 10.1641 47.5115 10.633 49.0047 11.6842C50.1455 12.4845 51.0772 13.6074 51.5431 14.9393L51.5491 14.9334Z" fill="#94BFCE"/>
<path d="M27.1671 27.1655C39.2619 35.9185 57.4041 32.9023 58.7689 16.6952C59.2049 11.5109 56.786 4.85722 49.753 1.73944C45.8289 0.00136828 41.4479 -0.00161821 38.139 2.33373C37.6343 2.6921 38.0434 3.47453 38.6198 3.25353C41.8302 2.01419 45.9096 2.30685 49.1886 5.12599C53.3009 8.66485 55.1912 15.4499 51.4433 19.9295C50.207 21.4047 48.4958 22.4918 46.5725 22.7665C43.1591 23.2473 39.6889 22.0856 36.8429 20.243C35.3019 19.2486 33.9013 18.0391 32.6799 16.6654C31.2166 15.0169 29.8249 13.3027 28.5378 11.5109C26.3757 8.49164 24.5301 5.44852 21.3735 3.3491C18.7843 1.63193 15.6994 0.64344 12.5786 0.840541C9.45782 1.03466 6.29525 2.55472 3.92108 4.77659C-0.355415 8.79028 -1.1259 15.5275 1.5708 20.7597C3.51195 24.5315 6.85072 27.2401 10.6225 29.014C11.3183 29.3455 11.7663 28.5482 11.3363 28.154C7.77649 24.9137 4.48252 19.7831 5.64721 15.6112C6.35199 13.0578 7.74066 12.0186 9.91773 12.0454C11.5393 12.0544 13.6865 13.9716 14.7258 15.3693C15.1081 15.8799 15.4873 16.3876 15.8845 16.8834C18.7126 20.4312 21.3884 23.1787 27.1671 27.1595V27.1655Z" fill="#D0E5ED"/>
<path d="M25.1042 27.0312C24.9668 26.9416 24.8115 26.8879 24.6473 26.8849C23.7782 26.87 21.8968 26.864 20.6366 26.7236C13.8903 26.1353 7.6279 20.0282 9.53022 13.6463C9.61085 13.3775 9.36299 13.1177 9.09122 13.1834C6.73497 13.7747 6.02123 16.9462 6.82456 19.6579C6.83352 19.6847 6.84248 19.7086 6.85144 19.7355C9.92144 28.0675 19.8004 34.1537 27.1588 29.9011C27.2335 29.8563 27.3022 29.8026 27.3619 29.7399C27.3619 29.7399 27.3619 29.7339 27.3708 29.7309C27.7203 29.3516 27.6546 28.7424 27.2245 28.4557L25.1102 27.0342L25.1042 27.0312Z" fill="#94BFCE"/>
<path d="M14.1654 16.767C12.2303 14.3331 10.4892 13.0728 10.4922 15.9935C10.4922 16.5131 10.7759 16.9999 11.2328 17.2776C13.0545 18.3766 14.7388 20.1386 16.683 20.6433C17.0144 20.7299 17.2593 20.3417 17.0264 20.0998C16.0558 19.0754 15.142 17.9974 14.1654 16.7759V16.77V16.767Z" fill="#264759"/>
<path d="M40.6296 21.0164C40.1309 20.8133 40.0054 20.1683 40.3877 19.792C41.5315 18.6721 42.7021 17.5671 43.9295 16.5398C44.5955 15.9814 45.3182 15.4647 46.0618 15.0078C46.8054 14.5479 47.6326 14.1686 48.4151 13.7386C48.8809 13.4818 49.4424 13.6192 49.756 14.0372C50.4488 14.96 51.4343 16.6712 50.9595 18.4631C50.2577 21.1239 46.4232 21.7152 46.4232 21.7152C46.4232 21.7152 43.4218 22.1572 40.6266 21.0164H40.6296Z" fill="#264759"/>
<path d="M47.4124 13.0279C47.9679 12.7741 47.938 11.9618 47.3527 11.7826C46.1193 11.4003 44.1901 10.8568 41.3441 12.1111C38.2801 13.4609 35.9776 15.2826 34.8935 16.071C34.5769 16.301 34.5232 16.7549 34.78 17.0506C35.3534 17.7046 36.4882 18.8006 38.2621 19.6547C38.5399 19.7891 38.8743 19.7174 39.0714 19.4815C40.1227 18.2123 44.5126 14.3479 47.4124 13.0309V13.0279Z" fill="#E2C06B"/>
<path d="M108.915 9.26824C108.058 9.26824 107.335 8.68888 107.108 7.90048H111.872L112.529 6.87914H107.105C107.329 6.08476 108.052 5.51138 108.912 5.51138H112.185L112.839 4.49003H108.838C107.237 4.49003 105.941 5.78612 105.941 7.39279C105.941 8.99947 107.24 10.2896 108.838 10.2896H112.281L112.935 9.26824H108.915ZM95.2704 10.2896H98.7137L99.3678 9.26824H95.3541C94.3118 9.26824 93.4726 8.42608 93.4726 7.39279C93.4726 6.35951 94.3088 5.51735 95.3541 5.51735H98.6212L99.2841 4.49003H95.2794C93.6787 4.49003 92.3766 5.78612 92.3766 7.39279C92.3766 8.99947 93.6787 10.2896 95.2794 10.2896M74.1 9.26824H70.8777C69.8384 9.26824 69.0023 8.42608 69.0023 7.39279C69.0023 6.35951 69.8384 5.51735 70.8777 5.51735H74.097C75.1363 5.51735 75.9784 6.35353 75.9784 7.39279C75.9784 8.43205 75.1422 9.26824 74.097 9.26824M70.809 10.2896H74.1806C75.7813 10.2896 77.0744 8.99349 77.0744 7.39279C77.0744 5.7921 75.7813 4.49003 74.1776 4.49003H70.809C69.2023 4.49003 67.9062 5.78612 67.9062 7.39279C67.9062 8.99947 69.2023 10.2896 70.809 10.2896ZM82.5455 8.41712C83.6325 8.41712 84.5075 7.53913 84.5075 6.45507C84.5075 5.37102 83.6355 4.49003 82.5455 4.49003H77.6657V10.2926H78.7826V5.52033H82.4738C82.9934 5.52033 83.4115 5.93843 83.4115 6.45806C83.4115 6.97769 82.9934 7.40175 82.4738 7.40175H79.3321L82.6649 10.2985H84.2806L82.0468 8.42309H82.5544M100.992 9.26824V4.49003H99.8754V9.7371C99.8754 9.88045 99.9352 10.0208 100.04 10.1223C100.144 10.2328 100.294 10.2926 100.443 10.2926H105.526L106.189 9.27123H100.989L100.992 9.26824ZM87.3446 8.2469H90.316L88.7452 5.71445L85.8604 10.2926H84.5434L88.0553 4.79464C88.2047 4.57067 88.4645 4.43628 88.7422 4.43628C89.02 4.43628 89.2708 4.56469 89.4201 4.78569L92.9411 10.2926H91.63L91.0119 9.27123H87.9986L87.3416 8.24989L87.3446 8.2469Z" fill="white"/>
<path d="M76.1367 24.7765L69.6025 15.0887L69.5756 15.0469H67.9062V27.8345H69.6891V18.1049L76.2203 27.7927L76.2502 27.8345H77.9196V15.0469H76.1367V24.7765Z" fill="white"/>
<path d="M92.956 26.3442C92.8306 26.3562 92.6992 26.3622 92.5648 26.3622C91.7675 26.3622 91.3792 25.9052 91.3792 24.9675V20.0728H93.3383V18.6006H91.3792V16.1069H90.2743L89.6441 18.5886L88.0703 19.1142V20.0758H89.6292V24.9884C89.6292 25.9799 89.8472 26.7235 90.2773 27.2013C90.7222 27.6821 91.4091 27.924 92.3229 27.924C92.5081 27.924 92.6843 27.9181 92.8485 27.9061C93.0247 27.8942 93.1979 27.8703 93.3652 27.8344L93.4398 27.8195V26.2845L93.3353 26.2965C93.2188 26.3084 93.0904 26.3263 92.956 26.3472V26.3442Z" fill="white"/>
<path d="M111.183 24.5674C110.947 25.1647 110.592 25.6515 110.126 26.0188C109.672 26.3742 109.179 26.5534 108.66 26.5534C108.045 26.5534 107.576 26.3563 107.262 25.9651C106.943 25.5679 106.781 24.9885 106.781 24.2389V18.5977H105.031V24.2897C105.031 25.4842 105.312 26.416 105.87 27.0551C106.441 27.6972 107.253 28.0227 108.28 28.0227C108.949 28.0227 109.577 27.8674 110.144 27.5598C110.655 27.288 111.094 26.9117 111.449 26.4339L111.7 27.8315H112.93V18.5977H111.18V24.5674H111.183Z" fill="white"/>
<path d="M114.625 19.389L115.527 19.9594V27.8345H117.274V18.6006H114.625V19.389Z" fill="white"/>
<path d="M117.261 15.6055H115.164V17.1972H117.261V15.6055Z" fill="white"/>
<path d="M123.487 26.3442C123.362 26.3562 123.23 26.3622 123.096 26.3622C122.299 26.3622 121.91 25.9052 121.91 24.9675V20.0728H123.87V18.6006H121.91V16.1069H120.806L120.175 18.5886L118.602 19.1142V20.0758H120.16V24.9884C120.16 25.9799 120.378 26.7235 120.808 27.2013C121.253 27.6821 121.94 27.924 122.854 27.924C123.039 27.924 123.216 27.9181 123.38 27.9061C123.556 27.8942 123.729 27.8703 123.896 27.8344L123.971 27.8195V26.2845L123.867 26.2965C123.75 26.3084 123.619 26.3263 123.487 26.3472V26.3442Z" fill="white"/>
<path d="M132.935 22.6799C132.935 19.8459 131.633 18.4094 129.062 18.4094C127.736 18.4094 126.697 18.8156 125.977 19.6189C125.252 20.4402 124.914 21.5571 124.914 23.1309C124.914 24.7047 125.29 25.947 126.031 26.7802C126.787 27.6045 127.903 28.0256 129.358 28.0256C129.997 28.0256 130.591 27.9658 131.129 27.8494C131.681 27.7299 132.129 27.5686 132.458 27.3686L132.502 27.3387V25.8216L132.368 25.8813C131.893 26.0964 131.421 26.2576 130.964 26.3592C130.511 26.4607 130.024 26.5145 129.513 26.5145C128.608 26.5145 127.918 26.2905 127.467 25.8485C127.028 25.4095 126.766 24.7107 126.688 23.7759H132.935V22.677V22.6799ZM126.688 22.3574C126.745 21.566 126.966 20.9568 127.348 20.5417C127.754 20.1027 128.33 19.8787 129.062 19.8787C129.839 19.8787 130.397 20.0758 130.723 20.47C131.051 20.8523 131.224 21.4854 131.236 22.3574H126.685H126.688Z" fill="white"/>
<path d="M83.5778 18.4094C82.2518 18.4094 81.2126 18.8156 80.4928 19.6189C79.7671 20.4431 79.4297 21.5571 79.4297 23.1309C79.4297 24.7047 79.806 25.947 80.5466 26.7802C81.3021 27.6045 82.419 28.0256 83.8734 28.0256C84.5125 28.0256 85.1068 27.9658 85.6443 27.8494C86.1968 27.7299 86.6448 27.5686 86.9733 27.3686L87.0181 27.3417V25.8246L86.8837 25.8843C86.4089 26.0993 85.937 26.2606 85.4801 26.3621C85.0262 26.4637 84.5394 26.5174 84.0287 26.5174C83.1238 26.5174 82.434 26.2935 81.983 25.8515C81.544 25.4125 81.2812 24.7137 81.2036 23.7789H87.4511V22.6799C87.4511 19.8459 86.149 18.4094 83.5778 18.4094ZM81.2036 22.3574C81.2603 21.566 81.4813 20.9568 81.8636 20.5417C82.2697 20.1027 82.8461 19.8787 83.5778 19.8787C84.3542 19.8787 84.9127 20.0758 85.2382 20.47C85.5667 20.8523 85.7399 21.4854 85.7518 22.3574H81.2006H81.2036Z" fill="white"/>
<path d="M102.939 22.2888C102.446 21.7125 101.607 21.1928 100.442 20.7359L99.1074 20.2163C98.2772 19.8848 97.6919 19.5712 97.3694 19.2816C97.0528 18.9979 96.8975 18.6634 96.8975 18.2602C96.8975 17.0298 97.7904 16.4326 99.6271 16.4326C100.604 16.4326 101.688 16.6864 102.846 17.1881L102.978 17.2449V15.6233L102.927 15.5964C102.494 15.3604 101.965 15.1783 101.362 15.0499C100.759 14.9095 100.162 14.8408 99.5912 14.8408C98.2115 14.8408 97.1096 15.1514 96.3092 15.7606C95.5029 16.3788 95.0938 17.2299 95.0938 18.2961C95.0938 19.0427 95.3476 19.7056 95.8463 20.2671C96.351 20.8076 97.1782 21.3033 98.3071 21.7453L99.642 22.265C100.505 22.5964 101.105 22.922 101.428 23.2325C101.741 23.5342 101.903 23.9254 101.903 24.3942C101.903 25.0393 101.643 25.5291 101.111 25.8934C100.586 26.2607 99.8421 26.4489 98.8954 26.4489C97.7576 26.4489 96.5451 26.1891 95.2938 25.6754L95.1624 25.6216V27.2462L95.2162 27.2701C95.5118 27.4105 95.8732 27.5419 96.2883 27.6554C96.7064 27.7718 97.1603 27.8674 97.6352 27.9361C98.1219 28.0048 98.5908 28.0406 99.0358 28.0406C100.496 28.0406 101.646 27.7181 102.455 27.085C103.285 26.4339 103.703 25.5171 103.703 24.3584C103.703 23.5521 103.444 22.8533 102.936 22.2859L102.939 22.2888Z" fill="white"/>
</g>
<defs>
<clipPath id="clip0_12862_25491">
<rect width="132.93" height="31.4764" fill="white" transform="translate(0 0.5)"/>
</clipPath>
</defs>
</svg>
