<svg width="25" height="25" viewBox="0 0 25 25" fill="none" xmlns="http://www.w3.org/2000/svg">
<path d="M8.59109 3.15918H16.1511C19.0311 3.15918 21.3711 5.49918 21.3711 8.37918V15.9392C21.3711 17.3236 20.8211 18.6513 19.8422 19.6303C18.8633 20.6092 17.5355 21.1592 16.1511 21.1592H8.59109C5.71109 21.1592 3.37109 18.8192 3.37109 15.9392V8.37918C3.37109 6.99475 3.92106 5.66702 4.9 4.68808C5.87894 3.70914 7.20666 3.15918 8.59109 3.15918ZM8.41109 4.95918C7.55179 4.95918 6.72769 5.30054 6.12007 5.90815C5.51245 6.51577 5.17109 7.33988 5.17109 8.19918V16.1192C5.17109 17.9102 6.62009 19.3592 8.41109 19.3592H16.3311C17.1904 19.3592 18.0145 19.0178 18.6221 18.4102C19.2297 17.8026 19.5711 16.9785 19.5711 16.1192V8.19918C19.5711 6.40818 18.1221 4.95918 16.3311 4.95918H8.41109ZM17.0961 6.30918C17.3945 6.30918 17.6806 6.42771 17.8916 6.63868C18.1026 6.84966 18.2211 7.13581 18.2211 7.43418C18.2211 7.73255 18.1026 8.0187 17.8916 8.22967C17.6806 8.44065 17.3945 8.55918 17.0961 8.55918C16.7977 8.55918 16.5116 8.44065 16.3006 8.22967C16.0896 8.0187 15.9711 7.73255 15.9711 7.43418C15.9711 7.13581 16.0896 6.84966 16.3006 6.63868C16.5116 6.42771 16.7977 6.30918 17.0961 6.30918ZM12.3711 7.65918C13.5646 7.65918 14.7092 8.13329 15.5531 8.9772C16.397 9.82111 16.8711 10.9657 16.8711 12.1592C16.8711 13.3527 16.397 14.4972 15.5531 15.3412C14.7092 16.1851 13.5646 16.6592 12.3711 16.6592C11.1776 16.6592 10.033 16.1851 9.18911 15.3412C8.3452 14.4972 7.87109 13.3527 7.87109 12.1592C7.87109 10.9657 8.3452 9.82111 9.18911 8.9772C10.033 8.13329 11.1776 7.65918 12.3711 7.65918ZM12.3711 9.45918C11.655 9.45918 10.9683 9.74364 10.4619 10.25C9.95556 10.7563 9.67109 11.4431 9.67109 12.1592C9.67109 12.8753 9.95556 13.562 10.4619 14.0684C10.9683 14.5747 11.655 14.8592 12.3711 14.8592C13.0872 14.8592 13.7739 14.5747 14.2803 14.0684C14.7866 13.562 15.0711 12.8753 15.0711 12.1592C15.0711 11.4431 14.7866 10.7563 14.2803 10.25C13.7739 9.74364 13.0872 9.45918 12.3711 9.45918Z" fill="#859998"/>
</svg>
