<svg width="25" height="25" viewBox="0 0 25 25" fill="none" xmlns="http://www.w3.org/2000/svg">
<path d="M17.3711 13.2838V16.9808H15.2281V13.5308C15.2281 12.6648 14.9181 12.0738 14.1421 12.0738C13.5501 12.0738 13.1971 12.4718 13.0421 12.8578C12.9861 12.9958 12.9711 13.1878 12.9711 13.3798V16.9808H10.8271C10.8271 16.9808 10.8561 11.1388 10.8271 10.5338H12.9711V11.4468L12.9571 11.4678H12.9711V11.4468C13.2561 11.0068 13.7641 10.3818 14.9031 10.3818C16.3131 10.3818 17.3711 11.3038 17.3711 13.2838ZM8.58409 7.4248C7.85109 7.4248 7.37109 7.9068 7.37109 8.53881C7.37109 9.15881 7.83709 9.6538 8.55609 9.6538H8.57009C9.31809 9.6538 9.78309 9.1578 9.78309 8.53881C9.76909 7.9068 9.31809 7.4248 8.58409 7.4248ZM7.49809 16.9808H9.64209V10.5338H7.49809V16.9808Z" fill="#859998"/>
<path d="M6.37109 4.15918C5.84066 4.15918 5.33195 4.36989 4.95688 4.74497C4.58181 5.12004 4.37109 5.62875 4.37109 6.15918V18.1592C4.37109 18.6896 4.58181 19.1983 4.95688 19.5734C5.33195 19.9485 5.84066 20.1592 6.37109 20.1592H18.3711C18.9015 20.1592 19.4102 19.9485 19.7853 19.5734C20.1604 19.1983 20.3711 18.6896 20.3711 18.1592V6.15918C20.3711 5.62875 20.1604 5.12004 19.7853 4.74497C19.4102 4.36989 18.9015 4.15918 18.3711 4.15918H6.37109ZM6.37109 2.15918H18.3711C19.432 2.15918 20.4494 2.58061 21.1995 3.33075C21.9497 4.0809 22.3711 5.09831 22.3711 6.15918V18.1592C22.3711 19.22 21.9497 20.2375 21.1995 20.9876C20.4494 21.7378 19.432 22.1592 18.3711 22.1592H6.37109C5.31023 22.1592 4.29281 21.7378 3.54267 20.9876C2.79252 20.2375 2.37109 19.22 2.37109 18.1592V6.15918C2.37109 5.09831 2.79252 4.0809 3.54267 3.33075C4.29281 2.58061 5.31023 2.15918 6.37109 2.15918Z" fill="#859998"/>
</svg>
