<svg width="71" height="71" viewBox="0 0 71 71" fill="none" xmlns="http://www.w3.org/2000/svg">
<path d="M45.7431 26.8457C44.6931 23.9302 41.5571 21.9842 35.2816 21.9842C27.9631 21.9842 24.1236 24.9452 24.8236 29.7612C25.3906 33.6497 30.0526 34.6262 35.2816 35.5957M24.7431 44.3457C25.7896 47.2612 28.9256 49.2072 35.2011 49.2072C42.5231 49.2072 46.3626 46.2462 45.6591 41.4302C45.0956 37.5417 40.4301 36.5652 35.2011 35.5957M35.2816 56.5957V14.5957" stroke="#95CC1E" stroke-width="2"/>
<path d="M35.2422 67.0957C52.6392 67.0957 66.7422 52.9927 66.7422 35.5957C66.7422 18.1987 52.6392 4.0957 35.2422 4.0957C17.8452 4.0957 3.74219 18.1987 3.74219 35.5957C3.74219 52.9927 17.8452 67.0957 35.2422 67.0957Z" stroke="#95CC1E" stroke-width="2" stroke-linejoin="round"/>
</svg>
