<svg width="71" height="71" viewBox="0 0 71 71" fill="none" xmlns="http://www.w3.org/2000/svg">
<path d="M62.2805 39.8677C64.9164 39.8677 67.0533 37.7309 67.0533 35.095C67.0533 32.4591 64.9164 30.3223 62.2805 30.3223C59.6446 30.3223 57.5078 32.4591 57.5078 35.095C57.5078 37.7309 59.6446 39.8677 62.2805 39.8677Z" stroke="#95CC1E" stroke-width="2"/>
<path d="M49.5696 16.0005C52.2055 16.0005 54.3423 13.8637 54.3423 11.2278C54.3423 8.5919 52.2055 6.45508 49.5696 6.45508C46.9337 6.45508 44.7969 8.5919 44.7969 11.2278C44.7969 13.8637 46.9337 16.0005 49.5696 16.0005Z" stroke="#95CC1E" stroke-width="2"/>
<path d="M49.5696 63.731C52.2055 63.731 54.3423 61.5942 54.3423 58.9583C54.3423 56.3224 52.2055 54.1855 49.5696 54.1855C46.9337 54.1855 44.7969 56.3224 44.7969 58.9583C44.7969 61.5942 46.9337 63.731 49.5696 63.731Z" stroke="#95CC1E" stroke-width="2"/>
<path d="M20.929 16.0005C23.5649 16.0005 25.7017 13.8637 25.7017 11.2278C25.7017 8.5919 23.5649 6.45508 20.929 6.45508C18.2931 6.45508 16.1562 8.5919 16.1562 11.2278C16.1562 13.8637 18.2931 16.0005 20.929 16.0005Z" stroke="#95CC1E" stroke-width="2"/>
<path d="M20.929 63.731C23.5649 63.731 25.7017 61.5942 25.7017 58.9583C25.7017 56.3224 23.5649 54.1855 20.929 54.1855C18.2931 54.1855 16.1562 56.3224 16.1562 58.9583C16.1562 61.5942 18.2931 63.731 20.929 63.731Z" stroke="#95CC1E" stroke-width="2"/>
<path d="M8.1946 39.8677C10.8305 39.8677 12.9673 37.7309 12.9673 35.095C12.9673 32.4591 10.8305 30.3223 8.1946 30.3223C5.5587 30.3223 3.42188 32.4591 3.42188 35.095C3.42188 37.7309 5.5587 39.8677 8.1946 39.8677Z" stroke="#95CC1E" stroke-width="2"/>
<path d="M47.9766 35.0968H57.522M12.9766 35.0968H22.522M27.2947 22.3695L24.1129 16.0059M27.2947 22.3695L20.9311 35.0968L27.2947 47.824M27.2947 22.3695H43.2038M27.2947 47.824L24.1129 54.1877M27.2947 47.824H43.2038M43.2038 22.3695L46.3857 16.0059M43.2038 22.3695L49.5675 35.0968L43.2038 47.824M43.2038 47.824L46.3857 54.1877" stroke="#95CC1E" stroke-width="2"/>
</svg>
