<svg width="71" height="71" viewBox="0 0 71 71" fill="none" xmlns="http://www.w3.org/2000/svg">
<path d="M61.6644 17.9395C64.1666 21.8006 65.7926 26.1631 66.428 30.72C67.0634 35.277 66.6928 39.9178 65.3423 44.3162C63.9917 48.7146 61.6941 52.7637 58.6108 56.1789C55.5276 59.594 51.7336 62.2923 47.4957 64.0839C43.2578 65.8755 38.6789 66.717 34.0809 66.5492C29.4829 66.3814 24.9775 65.2083 20.8815 63.1125C16.7855 61.0167 13.1983 58.0491 10.3722 54.4183C7.54612 50.7874 5.54974 46.5816 4.52344 42.0965" stroke="#95CC1E" stroke-width="2" stroke-dasharray="3.2 3.2"/>
<path d="M3.74219 35.0957C3.74148 29.426 5.27104 23.8612 8.16951 18.9884C11.068 14.1155 15.2279 10.1153 20.2104 7.40976C25.1929 4.70417 30.8133 3.39352 36.4787 3.61608C42.144 3.83863 47.6443 5.58614 52.3992 8.67424M40.1919 30.146C38.8792 28.8332 37.0987 28.0957 35.2422 28.0957C33.3857 28.0957 31.6052 28.8332 30.2924 30.146C28.9797 31.4588 28.2422 33.2392 28.2422 35.0957C28.2422 36.9523 28.9797 38.7327 30.2924 40.0455C31.6052 41.3582 33.3857 42.0957 35.2422 42.0957C37.0987 42.0957 38.8792 41.3582 40.1919 40.0455C41.5047 38.7327 42.2422 36.9523 42.2422 35.0957C42.2422 33.2392 41.5047 31.4588 40.1919 30.146ZM40.1919 30.146L59.9872 10.3472" stroke="#95CC1E" stroke-width="2" stroke-miterlimit="6.072"/>
</svg>
